<svg id="svg" version="1.1" width="233" height="60" xmlns="http://www.w3.org/2000/svg" xmlns:xlink="http://www.w3.org/1999/xlink" style="display: block;"><g id="svgg"><path id="path0" d="M275.500 90.566 C 275.308 90.759,275.150 91.248,275.150 91.653 C 275.150 92.193,275.292 92.247,275.684 91.855 C 275.978 91.561,276.136 91.072,276.034 90.768 C 275.933 90.465,275.693 90.374,275.500 90.566 M178.461 124.370 C 178.841 126.441,179.114 126.831,179.104 125.290 C 179.100 124.652,178.884 123.806,178.625 123.409 C 178.293 122.903,178.244 123.187,178.461 124.370 M178.540 163.505 C 178.432 164.430,178.517 165.186,178.728 165.186 C 178.939 165.186,179.112 164.430,179.112 163.505 C 179.112 162.581,179.027 161.825,178.924 161.825 C 178.821 161.825,178.648 162.581,178.540 163.505 " stroke="none" fill="#000000" fill-rule="evenodd"></path><path id="path1" d="" stroke="none" fill="#005500" fill-rule="evenodd"></path><path id="path2" d="M270.708 43.094 C 272.623 43.185,275.756 43.185,277.671 43.094 C 279.586 43.002,278.019 42.928,274.190 42.928 C 270.360 42.928,268.794 43.002,270.708 43.094 M275.222 63.842 C 275.328 64.158,275.571 64.402,275.762 64.382 C 276.336 64.322,276.225 63.664,275.606 63.457 C 275.289 63.352,275.116 63.525,275.222 63.842 M275.270 89.593 C 275.270 90.699,275.343 90.772,275.740 90.063 C 276.046 89.515,276.046 89.060,275.740 88.753 C 275.434 88.447,275.270 88.739,275.270 89.593 M275.235 97.799 C 275.320 98.240,275.666 98.656,276.002 98.724 C 276.339 98.792,276.405 98.742,276.149 98.612 C 275.894 98.483,275.803 98.067,275.949 97.688 C 276.094 97.309,275.958 96.999,275.646 96.999 C 275.335 96.999,275.150 97.359,275.235 97.799 M179.196 163.117 C 179.149 164.224,178.896 165.263,178.631 165.426 C 178.000 165.816,178.008 169.028,178.641 169.028 C 178.923 169.028,179.002 168.518,178.827 167.821 C 178.658 167.148,178.774 166.314,179.087 165.936 C 179.402 165.556,179.569 164.342,179.465 163.181 L 179.279 161.104 179.196 163.117 " stroke="none" fill="#007f00" fill-rule="evenodd"></path><path id="path3" d="M253.320 12.936 C 253.166 13.184,252.618 13.305,252.101 13.205 C 251.584 13.106,251.035 13.227,250.882 13.475 C 250.729 13.723,249.562 13.926,248.290 13.926 C 246.819 13.926,245.758 14.188,245.378 14.646 C 245.035 15.059,243.988 15.366,242.918 15.366 C 241.583 15.366,241.056 15.570,241.056 16.086 C 241.056 16.537,240.601 16.807,239.841 16.807 C 239.172 16.807,238.501 17.131,238.349 17.527 C 238.197 17.923,237.815 18.247,237.500 18.247 C 236.557 18.247,232.893 20.815,232.893 21.476 C 232.893 21.813,232.584 22.089,232.207 22.089 C 230.372 22.089,230.012 23.389,230.012 30.007 C 230.012 37.254,230.157 37.935,231.693 37.935 C 232.296 37.935,232.915 38.259,233.067 38.655 C 233.219 39.052,233.657 39.376,234.040 39.376 C 234.852 39.376,237.861 40.890,238.095 41.417 C 238.183 41.615,238.862 41.777,239.604 41.777 C 240.361 41.777,241.075 42.093,241.230 42.497 C 241.382 42.893,241.922 43.217,242.431 43.217 C 242.939 43.217,243.479 43.541,243.631 43.938 C 243.783 44.334,244.336 44.658,244.859 44.658 C 245.382 44.658,246.031 45.036,246.300 45.498 C 246.569 45.960,246.796 46.143,246.804 45.905 C 246.824 45.328,250.180 48.799,250.180 49.396 C 250.180 49.651,250.398 49.933,250.665 50.022 C 250.932 50.111,251.251 50.707,251.374 51.347 C 251.497 51.987,251.819 52.732,252.090 53.002 C 252.709 53.622,252.749 65.904,252.133 66.531 C 251.887 66.782,251.565 68.594,251.419 70.558 C 251.273 72.522,250.934 74.348,250.667 74.615 C 250.399 74.883,250.180 76.695,250.180 78.642 C 250.180 81.148,249.970 82.392,249.460 82.902 C 248.994 83.367,248.739 84.556,248.739 86.263 C 248.739 87.970,248.485 89.159,248.019 89.624 C 247.414 90.230,246.922 94.762,247.254 96.674 C 247.292 96.892,247.126 96.949,246.885 96.800 C 246.283 96.427,245.873 98.196,245.865 101.200 C 245.861 102.587,245.642 103.721,245.378 103.721 C 245.111 103.721,244.898 105.011,244.898 106.631 C 244.898 108.231,244.706 109.422,244.472 109.277 C 243.869 108.905,243.472 110.717,243.464 113.874 C 243.459 115.835,243.258 116.660,242.737 116.860 C 242.200 117.066,242.017 117.924,242.017 120.233 C 242.017 122.174,241.807 123.399,241.454 123.517 C 241.134 123.624,240.796 125.040,240.672 126.798 C 240.551 128.500,240.266 130.012,240.038 130.158 C 239.810 130.304,239.529 131.899,239.413 133.702 C 239.297 135.505,238.971 137.211,238.689 137.494 C 238.406 137.776,238.175 139.168,238.175 140.587 C 238.175 142.239,237.916 143.425,237.455 143.886 C 236.988 144.353,236.729 145.567,236.719 147.333 C 236.710 148.966,236.421 150.434,235.999 150.992 C 235.571 151.558,235.294 152.998,235.294 154.659 C 235.294 156.163,235.006 157.949,234.653 158.628 C 234.301 159.308,233.964 161.223,233.905 162.885 C 233.846 164.547,233.595 166.112,233.346 166.363 C 233.097 166.613,232.893 168.196,232.893 169.878 C 232.893 171.958,232.662 173.169,232.173 173.658 C 231.634 174.197,231.453 175.525,231.453 178.940 C 231.453 182.355,231.271 183.683,230.732 184.222 C 230.158 184.796,230.012 186.354,230.012 191.886 C 230.012 197.615,230.138 198.878,230.732 199.106 C 231.143 199.264,231.453 199.980,231.453 200.772 C 231.453 201.536,231.681 202.161,231.961 202.161 C 232.241 202.161,232.336 202.377,232.173 202.641 C 232.010 202.905,232.105 203.121,232.385 203.121 C 232.664 203.121,232.893 203.553,232.893 204.082 C 232.893 204.610,233.109 205.042,233.373 205.042 C 233.637 205.042,233.854 205.495,233.854 206.048 C 233.854 208.192,235.362 209.844,237.318 209.844 C 238.318 209.844,239.136 209.628,239.136 209.364 C 239.136 209.100,239.552 208.884,240.062 208.884 C 240.571 208.884,241.312 208.559,241.708 208.163 C 242.104 207.767,242.775 207.443,243.198 207.443 C 243.621 207.443,244.092 207.119,244.244 206.723 C 244.396 206.327,244.822 206.002,245.189 206.002 C 245.557 206.002,245.858 205.678,245.858 205.282 C 245.858 204.886,246.085 204.562,246.361 204.562 C 247.193 204.562,251.140 200.102,251.140 199.162 C 251.140 198.682,251.465 198.165,251.861 198.013 C 252.257 197.861,252.581 197.321,252.581 196.812 C 252.581 196.304,252.905 195.764,253.301 195.612 C 253.703 195.458,254.022 194.744,254.022 193.998 C 254.022 193.251,254.340 192.538,254.742 192.383 C 255.138 192.231,255.462 191.560,255.462 190.891 C 255.462 190.223,255.678 189.676,255.942 189.676 C 256.206 189.676,256.423 188.812,256.423 187.755 C 256.423 186.368,256.623 185.834,257.143 185.834 C 257.663 185.834,257.863 185.301,257.863 183.914 C 257.863 182.526,258.063 181.993,258.583 181.993 C 259.057 181.993,259.304 181.519,259.304 180.611 C 259.304 179.851,259.628 178.960,260.024 178.631 C 260.420 178.303,260.744 177.504,260.744 176.858 C 260.744 176.211,261.068 175.358,261.465 174.961 C 261.861 174.565,262.185 173.824,262.185 173.315 C 262.185 172.806,262.401 172.389,262.665 172.389 C 262.929 172.389,263.145 171.872,263.145 171.240 C 263.145 170.608,263.469 169.966,263.866 169.814 C 264.262 169.662,264.586 169.056,264.586 168.466 C 264.586 167.633,264.714 167.523,265.162 167.971 C 265.479 168.288,266.127 168.547,266.603 168.547 C 267.078 168.547,267.467 168.872,267.467 169.268 C 267.467 169.716,267.921 169.988,268.667 169.988 C 269.328 169.988,269.868 170.192,269.868 170.442 C 269.868 170.890,271.715 172.074,273.349 172.673 C 273.812 172.843,274.190 173.172,274.190 173.405 C 274.190 173.639,274.707 173.830,275.339 173.830 C 275.971 173.830,276.612 174.154,276.764 174.550 C 276.916 174.946,277.588 175.270,278.256 175.270 C 279.017 175.270,279.472 175.540,279.472 175.990 C 279.472 176.441,279.927 176.711,280.687 176.711 C 281.356 176.711,282.027 177.035,282.179 177.431 C 282.331 177.827,282.865 178.151,283.365 178.151 C 283.865 178.151,284.275 178.313,284.277 178.511 C 284.281 178.999,287.061 180.552,287.929 180.552 C 288.312 180.552,288.750 180.876,288.902 181.273 C 289.054 181.669,289.672 181.993,290.276 181.993 C 290.880 181.993,291.498 182.317,291.650 182.713 C 291.802 183.109,292.339 183.433,292.843 183.433 C 293.347 183.433,294.029 183.758,294.358 184.154 C 294.687 184.550,295.361 184.874,295.857 184.874 C 296.353 184.874,296.759 185.090,296.759 185.354 C 296.759 185.618,297.306 185.834,297.974 185.834 C 298.643 185.834,299.314 186.158,299.466 186.555 C 299.618 186.951,300.260 187.275,300.892 187.275 C 301.593 187.275,302.041 187.556,302.041 187.995 C 302.041 188.475,302.521 188.715,303.481 188.715 C 304.442 188.715,304.922 188.956,304.922 189.436 C 304.922 189.877,305.371 190.156,306.082 190.156 C 306.721 190.156,307.316 190.374,307.405 190.641 C 307.493 190.908,308.105 191.230,308.764 191.357 C 309.422 191.483,310.034 191.805,310.122 192.072 C 310.211 192.339,310.806 192.557,311.445 192.557 C 312.156 192.557,312.605 192.836,312.605 193.277 C 312.605 193.758,313.085 193.998,314.046 193.998 C 315.006 193.998,315.486 194.238,315.486 194.718 C 315.486 195.157,315.934 195.438,316.635 195.438 C 317.267 195.438,317.909 195.762,318.061 196.158 C 318.213 196.555,318.884 196.879,319.553 196.879 C 320.221 196.879,320.768 197.095,320.768 197.359 C 320.768 197.623,321.285 197.839,321.917 197.839 C 322.549 197.839,323.191 198.163,323.343 198.559 C 323.495 198.956,324.166 199.280,324.835 199.280 C 325.595 199.280,326.050 199.549,326.050 200.000 C 326.050 200.474,326.525 200.720,327.440 200.720 C 328.231 200.720,328.948 201.030,329.105 201.441 C 329.257 201.837,329.821 202.161,330.357 202.161 C 330.894 202.161,331.333 202.360,331.333 202.603 C 331.333 202.846,331.981 203.187,332.773 203.361 C 333.565 203.535,334.214 203.877,334.214 204.120 C 334.214 204.363,334.761 204.562,335.429 204.562 C 336.098 204.562,336.769 204.886,336.921 205.282 C 337.073 205.678,337.561 206.002,338.005 206.002 C 338.449 206.002,339.646 206.428,340.666 206.947 C 341.685 207.467,342.737 207.758,343.002 207.593 C 343.268 207.429,343.346 207.521,343.174 207.799 C 342.831 208.354,343.866 208.884,345.297 208.884 C 345.804 208.884,346.218 209.100,346.218 209.364 C 346.218 209.628,346.844 209.844,347.608 209.844 C 348.400 209.844,349.116 210.154,349.273 210.564 C 349.447 211.016,350.181 211.285,351.245 211.285 C 352.433 211.285,352.941 211.501,352.941 212.005 C 352.941 212.522,353.469 212.725,354.811 212.725 C 356.029 212.725,356.776 212.976,356.956 213.445 C 357.139 213.921,357.891 214.166,359.169 214.166 C 360.233 214.166,361.104 214.395,361.104 214.674 C 361.104 214.954,361.306 215.058,361.551 214.906 C 361.797 214.755,362.114 214.818,362.256 215.047 C 362.618 215.633,378.228 215.779,378.586 215.200 C 378.744 214.945,379.277 214.842,379.772 214.971 C 380.708 215.216,380.770 215.056,381.652 210.084 C 381.839 209.028,382.209 208.271,382.473 208.403 C 382.737 208.535,383.022 208.049,383.105 207.323 C 383.192 206.567,383.551 206.002,383.945 206.002 C 385.069 206.002,384.858 201.905,383.673 200.720 C 383.145 200.192,382.618 199.760,382.503 199.760 C 382.387 199.760,381.582 199.112,380.715 198.319 C 379.847 197.527,378.862 196.879,378.524 196.879 C 378.187 196.879,377.911 196.555,377.911 196.158 C 377.911 195.762,377.587 195.438,377.191 195.438 C 376.795 195.438,376.471 195.232,376.471 194.981 C 376.471 194.729,375.694 194.155,374.746 193.704 C 373.797 193.254,372.910 192.596,372.774 192.241 C 372.638 191.887,371.901 191.597,371.137 191.597 C 370.222 191.597,369.748 191.351,369.748 190.876 C 369.748 190.428,369.294 190.156,368.547 190.156 C 367.800 190.156,367.347 189.884,367.347 189.436 C 367.347 189.040,366.941 188.715,366.445 188.715 C 365.949 188.715,365.275 188.391,364.946 187.995 C 364.617 187.599,363.834 187.275,363.207 187.275 C 362.579 187.275,362.065 187.059,362.065 186.795 C 362.065 186.531,361.417 186.315,360.624 186.315 C 359.664 186.315,359.184 186.074,359.184 185.594 C 359.184 185.120,358.709 184.874,357.794 184.874 C 357.003 184.874,356.286 184.564,356.129 184.154 C 355.955 183.702,355.221 183.433,354.157 183.433 C 352.970 183.433,352.461 183.217,352.461 182.713 C 352.461 182.317,352.083 181.991,351.621 181.988 C 351.158 181.986,349.700 181.453,348.379 180.803 C 347.059 180.153,345.519 179.615,344.957 179.607 C 344.395 179.599,343.666 179.268,343.337 178.872 C 343.009 178.475,342.226 178.151,341.598 178.151 C 340.903 178.151,340.456 177.869,340.456 177.431 C 340.456 177.035,340.056 176.711,339.567 176.711 C 339.078 176.711,337.662 176.170,336.421 175.510 C 335.179 174.850,333.526 174.310,332.748 174.310 C 331.810 174.310,331.333 174.067,331.333 173.589 C 331.333 173.109,330.852 172.869,329.892 172.869 C 328.932 172.869,328.451 172.629,328.451 172.149 C 328.451 171.727,328.004 171.422,327.371 171.413 C 326.777 171.405,325.871 171.081,325.358 170.693 C 324.846 170.305,324.053 169.988,323.597 169.988 C 322.681 169.988,319.661 168.517,319.408 167.947 C 319.320 167.749,318.617 167.587,317.847 167.587 C 316.922 167.587,316.447 167.342,316.447 166.867 C 316.447 166.391,315.971 166.146,315.046 166.146 C 314.276 166.146,313.573 165.969,313.485 165.753 C 313.182 165.006,307.166 162.305,305.806 162.305 C 304.913 162.305,304.442 162.056,304.442 161.585 C 304.442 161.188,304.118 160.864,303.721 160.864 C 303.325 160.864,303.001 160.690,303.001 160.476 C 303.001 160.262,301.815 159.560,300.365 158.915 C 298.915 158.271,297.727 157.581,297.724 157.383 C 297.721 157.185,297.410 157.023,297.033 157.023 C 296.656 157.023,296.052 156.753,295.692 156.423 C 294.807 155.611,293.384 154.717,292.077 154.152 C 291.483 153.895,290.996 153.464,290.996 153.193 C 290.996 152.923,290.557 152.701,290.021 152.701 C 289.484 152.701,288.921 152.377,288.769 151.981 C 288.617 151.585,288.192 151.261,287.824 151.261 C 287.456 151.261,287.155 151.044,287.155 150.780 C 287.155 150.516,286.854 150.300,286.486 150.300 C 286.118 150.300,285.693 149.976,285.541 149.580 C 285.389 149.184,284.825 148.860,284.289 148.860 C 283.742 148.860,283.313 148.543,283.313 148.139 C 283.313 147.743,283.087 147.419,282.810 147.419 C 282.533 147.419,281.806 146.879,281.195 146.218 C 280.583 145.558,279.837 145.018,279.537 145.018 C 279.237 145.018,278.992 144.779,278.992 144.487 C 278.992 144.195,278.451 143.531,277.791 143.011 C 277.131 142.492,276.591 141.874,276.591 141.638 C 276.591 141.154,279.819 137.815,280.287 137.815 C 280.990 137.815,284.274 136.157,284.274 135.802 C 284.274 135.589,284.575 135.414,284.943 135.414 C 285.311 135.414,285.736 135.090,285.888 134.694 C 286.040 134.298,286.711 133.974,287.380 133.974 C 288.140 133.974,288.595 133.704,288.595 133.253 C 288.595 132.857,288.955 132.533,289.394 132.533 C 290.473 132.533,293.878 131.004,293.878 130.520 C 293.878 130.307,294.395 130.132,295.027 130.132 C 295.659 130.132,296.300 129.808,296.452 129.412 C 296.604 129.016,297.291 128.691,297.978 128.691 C 298.666 128.691,299.552 128.367,299.949 127.971 C 300.345 127.575,301.092 127.251,301.610 127.251 C 302.128 127.251,302.676 126.927,302.828 126.531 C 302.985 126.120,303.701 125.810,304.493 125.810 C 305.257 125.810,305.882 125.594,305.882 125.330 C 305.882 125.066,306.288 124.850,306.784 124.850 C 307.280 124.850,307.955 124.526,308.283 124.130 C 308.612 123.733,309.395 123.409,310.023 123.409 C 310.717 123.409,311.164 123.127,311.164 122.689 C 311.164 122.239,311.620 121.969,312.380 121.969 C 313.049 121.969,313.720 121.645,313.872 121.248 C 314.024 120.852,314.665 120.528,315.297 120.528 C 315.929 120.528,316.447 120.329,316.447 120.086 C 316.447 119.843,317.095 119.502,317.887 119.328 C 318.679 119.154,319.328 118.812,319.328 118.569 C 319.328 118.326,319.767 118.127,320.303 118.127 C 320.840 118.127,321.403 117.803,321.555 117.407 C 321.707 117.011,322.225 116.687,322.706 116.687 C 323.187 116.687,323.905 116.363,324.301 115.966 C 324.697 115.570,325.368 115.246,325.791 115.246 C 326.214 115.246,326.685 114.922,326.837 114.526 C 326.989 114.130,327.336 113.806,327.607 113.806 C 327.879 113.806,328.602 113.265,329.214 112.605 C 329.826 111.945,330.553 111.405,330.829 111.405 C 331.106 111.405,331.333 111.080,331.333 110.684 C 331.333 110.288,331.657 109.964,332.053 109.964 C 332.449 109.964,332.773 109.627,332.773 109.215 C 332.773 108.804,332.989 108.600,333.253 108.764 C 333.517 108.927,333.733 108.723,333.733 108.312 C 333.733 107.900,334.058 107.563,334.454 107.563 C 334.850 107.563,335.174 107.239,335.174 106.843 C 335.174 106.447,335.498 106.122,335.894 106.122 C 336.291 106.122,336.615 105.917,336.615 105.667 C 336.615 105.416,337.160 104.623,337.827 103.904 C 338.493 103.184,339.165 102.093,339.319 101.478 C 339.474 100.863,339.793 100.360,340.028 100.360 C 340.264 100.360,340.456 99.843,340.456 99.211 C 340.456 98.579,340.780 97.938,341.176 97.786 C 341.622 97.615,341.897 96.884,341.897 95.872 C 341.897 94.972,342.221 93.966,342.617 93.637 C 343.013 93.309,343.344 92.256,343.353 91.298 C 343.361 90.340,343.685 89.136,344.073 88.624 C 345.279 87.029,344.981 71.070,343.759 71.825 C 343.527 71.968,343.337 70.877,343.337 69.401 C 343.337 67.458,343.138 66.640,342.617 66.440 C 342.152 66.262,341.897 65.519,341.897 64.346 C 341.897 63.173,341.641 62.430,341.176 62.251 C 340.780 62.099,340.456 61.428,340.456 60.759 C 340.456 60.091,340.240 59.544,339.976 59.544 C 339.712 59.544,339.496 59.127,339.496 58.618 C 339.496 58.108,339.172 57.368,338.776 56.971 C 338.379 56.575,338.055 55.905,338.055 55.481 C 338.055 55.058,337.731 54.587,337.335 54.435 C 336.939 54.283,336.615 53.881,336.615 53.541 C 336.615 53.202,336.291 52.799,335.894 52.647 C 335.498 52.495,335.174 51.943,335.174 51.419 C 335.174 50.896,334.884 50.295,334.529 50.084 C 334.175 49.873,333.503 49.107,333.036 48.383 C 332.570 47.659,331.962 47.207,331.686 47.377 C 331.410 47.548,331.323 47.463,331.492 47.189 C 331.993 46.378,325.793 39.376,324.573 39.376 C 324.241 39.376,324.106 39.239,324.273 39.072 C 324.611 38.734,322.915 37.308,321.609 36.832 C 321.146 36.663,320.768 36.302,320.768 36.029 C 320.768 35.757,320.444 35.534,320.048 35.534 C 319.652 35.534,319.328 35.210,319.328 34.814 C 319.328 34.418,319.004 34.094,318.607 34.094 C 318.211 34.094,317.887 33.895,317.887 33.653 C 317.887 33.410,317.077 32.717,316.086 32.112 C 315.096 31.508,314.214 30.842,314.126 30.633 C 314.038 30.423,313.683 30.252,313.337 30.252 C 312.991 30.252,312.583 29.928,312.431 29.532 C 312.279 29.136,311.608 28.812,310.939 28.812 C 310.225 28.812,309.724 28.538,309.724 28.147 C 309.724 27.782,309.346 27.356,308.884 27.201 C 308.067 26.927,306.368 25.936,305.882 25.450 C 305.238 24.808,302.337 23.529,301.522 23.529 C 301.015 23.529,300.600 23.205,300.600 22.809 C 300.600 22.371,300.153 22.089,299.459 22.089 C 298.831 22.089,298.048 21.765,297.719 21.369 C 297.390 20.972,296.808 20.648,296.426 20.648 C 296.043 20.648,295.406 20.324,295.009 19.928 C 294.613 19.532,293.872 19.208,293.363 19.208 C 292.854 19.208,292.437 18.992,292.437 18.727 C 292.437 18.463,291.573 18.247,290.516 18.247 C 289.129 18.247,288.595 18.047,288.595 17.527 C 288.595 17.027,288.092 16.807,286.949 16.807 C 286.044 16.807,284.979 16.483,284.582 16.086 C 284.186 15.690,283.144 15.359,282.267 15.351 C 281.390 15.342,280.300 15.053,279.844 14.707 C 279.389 14.361,277.552 14.032,275.763 13.975 C 273.973 13.919,272.437 13.668,272.349 13.419 C 272.120 12.771,270.655 12.858,269.894 13.565 C 269.376 14.046,269.315 14.046,269.586 13.565 C 269.772 13.235,269.750 12.950,269.536 12.932 C 269.322 12.914,268.506 12.816,267.721 12.713 C 266.858 12.601,265.958 12.833,265.440 13.301 C 264.654 14.013,264.586 14.011,264.586 13.280 C 264.586 12.324,258.491 12.115,256.813 13.013 C 256.096 13.397,255.916 13.397,256.153 13.013 C 256.591 12.304,255.800 12.339,255.078 13.061 C 254.630 13.509,254.502 13.509,254.502 13.061 C 254.502 12.378,253.716 12.294,253.320 12.936 M191.409 27.211 C 190.720 27.954,190.156 28.942,190.156 29.407 C 190.156 29.872,189.940 30.252,189.676 30.252 C 188.968 30.252,187.479 31.864,186.031 34.197 C 185.329 35.329,184.133 36.837,183.374 37.548 C 182.614 38.259,181.993 39.155,181.993 39.537 C 181.993 39.920,181.669 40.358,181.273 40.510 C 180.876 40.662,180.552 41.038,180.552 41.346 C 180.552 41.655,180.012 42.407,179.352 43.019 C 178.691 43.631,178.151 44.335,178.151 44.584 C 178.151 44.832,177.827 45.160,177.431 45.312 C 177.035 45.464,176.711 46.027,176.711 46.564 C 176.711 47.111,176.394 47.539,175.990 47.539 C 175.594 47.539,175.270 47.744,175.270 47.994 C 175.270 48.245,174.730 49.033,174.070 49.745 C 173.409 50.458,172.869 51.441,172.869 51.931 C 172.869 52.421,172.545 52.821,172.149 52.821 C 171.753 52.821,171.429 53.145,171.429 53.541 C 171.429 53.938,171.230 54.262,170.988 54.262 C 170.745 54.262,170.052 55.072,169.447 56.062 C 168.843 57.053,168.177 57.935,167.968 58.023 C 167.758 58.111,167.587 58.489,167.587 58.864 C 167.587 59.238,167.263 59.544,166.867 59.544 C 166.419 59.544,166.146 59.997,166.146 60.744 C 166.146 61.491,165.874 61.945,165.426 61.945 C 165.030 61.945,164.706 62.269,164.706 62.665 C 164.706 63.061,164.507 63.385,164.265 63.385 C 164.022 63.385,163.329 64.196,162.725 65.186 C 162.120 66.176,161.454 67.059,161.245 67.147 C 161.036 67.235,160.864 67.590,160.864 67.936 C 160.864 68.282,160.540 68.689,160.144 68.841 C 159.748 68.993,159.424 69.569,159.424 70.121 C 159.424 70.673,159.208 70.992,158.944 70.828 C 158.679 70.665,158.463 70.749,158.463 71.015 C 158.463 71.281,157.897 72.105,157.204 72.844 C 156.511 73.584,155.734 74.784,155.476 75.510 C 155.219 76.236,154.813 76.831,154.575 76.831 C 154.337 76.831,154.142 77.039,154.142 77.294 C 154.142 77.549,153.493 78.421,152.701 79.232 C 151.909 80.042,151.261 80.924,151.261 81.192 C 151.261 81.460,150.720 82.179,150.060 82.791 C 149.400 83.403,148.860 84.270,148.860 84.717 C 148.860 85.165,148.650 85.401,148.393 85.243 C 148.137 85.084,147.790 85.504,147.621 86.175 C 147.453 86.846,147.014 87.395,146.647 87.395 C 146.279 87.395,145.978 87.719,145.978 88.115 C 145.978 88.511,145.804 88.836,145.591 88.836 C 145.377 88.836,144.821 89.700,144.355 90.756 C 143.889 91.813,143.199 92.677,142.822 92.677 C 142.445 92.677,142.137 92.978,142.137 93.346 C 142.137 93.714,141.813 94.139,141.417 94.291 C 141.020 94.443,140.696 94.909,140.696 95.326 C 140.696 95.743,140.156 96.585,139.496 97.197 C 138.836 97.809,138.295 98.532,138.295 98.803 C 138.295 99.075,137.971 99.421,137.575 99.573 C 137.179 99.725,136.855 100.397,136.855 101.065 C 136.855 101.734,136.628 102.281,136.352 102.281 C 135.609 102.281,133.686 104.497,133.008 106.136 C 132.683 106.921,132.227 107.563,131.995 107.563 C 131.762 107.563,131.573 107.887,131.573 108.283 C 131.573 108.679,131.337 109.004,131.049 109.004 C 130.296 109.004,128.726 111.016,128.707 112.005 C 128.699 112.467,128.367 112.845,127.971 112.845 C 127.575 112.845,127.251 113.090,127.251 113.390 C 127.251 113.690,126.711 114.436,126.050 115.048 C 125.390 115.660,124.850 116.508,124.850 116.932 C 124.850 117.357,124.640 117.574,124.384 117.416 C 124.127 117.257,123.780 117.677,123.611 118.348 C 123.443 119.019,123.005 119.568,122.637 119.568 C 122.269 119.568,121.969 119.869,121.969 120.237 C 121.969 121.645,120.637 121.434,120.347 119.981 C 120.188 119.185,119.843 118.678,119.573 118.844 C 119.281 119.025,119.088 118.466,119.088 117.435 C 119.088 116.495,118.872 115.726,118.607 115.726 C 118.343 115.726,118.127 114.985,118.127 114.080 C 118.127 113.174,117.803 112.109,117.407 111.713 C 117.011 111.317,116.687 110.453,116.687 109.792 C 116.687 109.132,116.363 108.268,115.966 107.872 C 115.570 107.476,115.246 106.745,115.246 106.249 C 115.246 105.752,114.929 104.926,114.541 104.414 C 114.153 103.901,113.829 102.887,113.821 102.161 C 113.812 101.435,113.589 100.840,113.325 100.840 C 113.061 100.840,112.886 100.678,112.937 100.480 C 113.126 99.733,112.270 96.999,111.847 96.999 C 111.603 96.999,111.405 96.269,111.405 95.377 C 111.405 94.485,111.080 93.486,110.684 93.157 C 110.288 92.828,109.964 91.823,109.964 90.923 C 109.964 89.910,109.689 89.180,109.244 89.009 C 108.797 88.838,108.523 88.107,108.523 87.088 C 108.523 86.070,108.249 85.339,107.803 85.168 C 107.399 85.013,107.083 84.298,107.083 83.542 C 107.083 82.800,106.874 82.121,106.618 82.033 C 106.362 81.945,106.098 81.145,106.031 80.256 C 105.964 79.367,105.633 78.534,105.296 78.404 C 104.943 78.269,104.682 77.374,104.682 76.299 C 104.682 74.958,104.478 74.430,103.962 74.430 C 103.464 74.430,103.241 73.929,103.241 72.808 C 103.241 71.916,102.917 70.917,102.521 70.588 C 102.125 70.259,101.801 69.369,101.801 68.609 C 101.801 67.849,101.585 67.227,101.321 67.227 C 101.056 67.227,100.840 66.702,100.840 66.061 C 100.840 65.419,100.516 64.570,100.120 64.174 C 99.724 63.778,99.400 62.898,99.400 62.219 C 99.400 61.442,99.133 60.984,98.679 60.984 C 98.163 60.984,97.959 60.457,97.959 59.115 C 97.959 57.896,97.708 57.149,97.239 56.969 C 96.843 56.817,96.519 56.247,96.519 55.702 C 96.519 55.157,96.194 54.587,95.798 54.435 C 95.388 54.278,95.078 53.562,95.078 52.770 C 95.078 52.006,94.862 51.381,94.598 51.381 C 94.334 51.381,94.118 50.834,94.118 50.165 C 94.118 49.496,93.840 48.843,93.501 48.713 C 93.162 48.583,92.837 47.887,92.780 47.167 C 92.722 46.447,92.372 45.634,92.002 45.359 C 91.632 45.085,91.250 44.329,91.152 43.679 C 91.054 43.029,90.709 42.551,90.385 42.617 C 90.024 42.691,89.796 42.179,89.796 41.297 C 89.796 40.504,89.634 39.854,89.436 39.851 C 89.238 39.849,88.649 38.877,88.128 37.691 C 87.606 36.505,86.918 35.534,86.599 35.534 C 86.280 35.534,85.950 34.940,85.866 34.214 C 85.620 32.069,82.113 31.930,82.113 34.065 C 82.113 35.051,81.876 35.534,81.393 35.534 C 80.953 35.534,80.672 35.982,80.672 36.683 C 80.672 37.315,80.348 37.957,79.952 38.109 C 79.556 38.261,79.232 38.932,79.232 39.601 C 79.232 40.269,79.016 40.816,78.752 40.816 C 78.487 40.816,78.271 41.207,78.271 41.685 C 78.271 42.163,77.954 42.973,77.566 43.486 C 77.179 43.998,76.854 44.769,76.846 45.199 C 76.838 45.629,76.507 46.250,76.110 46.579 C 75.714 46.907,75.390 47.664,75.390 48.259 C 75.390 48.855,75.066 49.611,74.670 49.940 C 74.274 50.269,73.950 50.959,73.950 51.474 C 73.950 51.988,73.625 52.734,73.229 53.130 C 72.833 53.526,72.509 54.267,72.509 54.776 C 72.509 55.286,72.293 55.702,72.029 55.702 C 71.765 55.702,71.549 56.258,71.549 56.937 C 71.549 57.616,71.224 58.496,70.828 58.892 C 70.432 59.288,70.108 60.114,70.108 60.727 C 70.108 61.340,69.784 61.966,69.388 62.118 C 68.992 62.270,68.667 62.942,68.667 63.610 C 68.667 64.279,68.469 64.826,68.225 64.826 C 67.982 64.826,67.641 65.474,67.467 66.267 C 67.293 67.059,66.952 67.707,66.709 67.707 C 66.465 67.707,66.267 68.340,66.267 69.113 C 66.267 69.887,65.942 70.844,65.546 71.240 C 65.150 71.636,64.826 72.523,64.826 73.210 C 64.826 73.897,64.502 74.584,64.106 74.736 C 63.693 74.895,63.385 75.612,63.385 76.417 C 63.385 77.222,63.078 77.939,62.665 78.098 C 62.269 78.250,61.945 78.766,61.945 79.244 C 61.945 79.723,61.584 80.834,61.143 81.714 C 59.638 84.717,59.544 84.982,59.544 86.203 C 59.544 86.875,59.220 87.549,58.824 87.701 C 58.427 87.854,58.103 88.510,58.103 89.161 C 58.103 89.812,57.779 90.669,57.383 91.065 C 56.987 91.461,56.663 92.284,56.663 92.893 C 56.663 93.502,56.339 94.269,55.942 94.598 C 55.546 94.927,55.222 95.589,55.222 96.069 C 55.222 96.549,55.006 97.076,54.742 97.239 C 54.478 97.402,54.262 98.178,54.262 98.963 C 54.262 99.789,53.958 100.507,53.541 100.667 C 53.140 100.821,52.821 101.535,52.821 102.281 C 52.821 103.027,52.503 103.741,52.101 103.895 C 51.675 104.059,51.381 104.780,51.381 105.661 C 51.381 106.481,51.056 107.476,50.660 107.872 C 50.264 108.268,49.940 109.009,49.940 109.518 C 49.940 110.027,49.726 110.444,49.465 110.444 C 49.204 110.444,48.853 111.309,48.684 112.365 C 48.515 113.421,48.188 114.286,47.958 114.286 C 47.727 114.286,47.539 114.833,47.539 115.501 C 47.539 116.170,47.215 116.841,46.819 116.993 C 46.349 117.173,46.098 117.920,46.098 119.139 C 46.098 120.481,45.895 121.008,45.378 121.008 C 44.956 121.008,44.652 121.455,44.643 122.089 C 44.634 122.683,44.310 123.589,43.922 124.101 C 43.535 124.614,43.217 125.520,43.217 126.114 C 43.217 126.708,43.001 127.328,42.737 127.491 C 42.473 127.654,42.250 128.261,42.242 128.840 C 42.233 129.419,41.909 130.311,41.521 130.824 C 41.134 131.337,40.816 132.363,40.816 133.105 C 40.816 133.984,40.565 134.454,40.096 134.454 C 39.623 134.454,39.376 134.927,39.376 135.836 C 39.376 136.596,39.052 137.486,38.655 137.815 C 38.259 138.144,37.935 139.017,37.935 139.755 C 37.935 140.493,37.732 141.168,37.483 141.257 C 37.235 141.345,36.918 142.046,36.781 142.816 C 36.643 143.585,36.306 144.439,36.032 144.712 C 35.758 144.986,35.534 145.792,35.534 146.503 C 35.534 147.214,35.210 147.921,34.814 148.073 C 34.368 148.244,34.094 148.975,34.094 149.994 C 34.094 151.012,33.820 151.743,33.373 151.914 C 32.921 152.088,32.653 152.822,32.653 153.886 C 32.653 154.819,32.447 155.582,32.195 155.582 C 31.942 155.582,31.590 156.393,31.412 157.383 C 31.233 158.373,30.906 159.414,30.684 159.696 C 30.462 159.977,30.228 160.896,30.164 161.737 C 30.098 162.603,29.780 163.265,29.430 163.265 C 29.073 163.265,28.812 163.834,28.812 164.610 C 28.812 165.349,28.541 166.245,28.211 166.601 C 27.724 167.126,27.747 167.182,28.331 166.902 C 28.772 166.690,28.725 166.823,28.211 167.244 C 27.732 167.637,27.371 168.588,27.371 169.456 C 27.371 170.366,27.081 171.090,26.651 171.255 C 26.181 171.435,25.930 172.182,25.930 173.401 C 25.930 174.447,25.696 175.270,25.399 175.270 C 25.106 175.270,24.992 175.594,25.144 175.990 C 25.296 176.387,25.211 176.711,24.955 176.711 C 24.699 176.711,24.490 177.359,24.490 178.151 C 24.490 178.944,24.274 179.592,24.010 179.592 C 23.745 179.592,23.529 180.702,23.529 182.060 C 23.529 183.841,23.296 184.710,22.689 185.182 C 21.889 185.806,21.889 185.823,22.689 185.544 C 23.438 185.283,23.529 185.623,23.529 188.664 C 23.529 190.998,23.347 192.077,22.953 192.077 C 22.505 192.077,22.505 192.205,22.953 192.653 C 23.270 192.970,23.529 193.927,23.529 194.779 C 23.529 195.864,23.893 196.615,24.740 197.281 C 25.560 197.926,25.753 198.312,25.340 198.478 C 24.862 198.670,24.860 198.732,25.330 198.762 C 25.660 198.782,25.930 199.048,25.930 199.351 C 25.930 200.164,28.803 202.740,30.921 203.827 C 31.935 204.347,32.870 205.050,33.000 205.388 C 33.130 205.726,33.753 206.002,34.385 206.002 C 35.086 206.002,35.534 206.283,35.534 206.723 C 35.534 207.131,35.965 207.443,36.529 207.443 C 37.076 207.443,37.848 207.767,38.244 208.163 C 38.640 208.559,39.381 208.884,39.890 208.884 C 40.400 208.884,40.816 209.113,40.816 209.393 C 40.816 210.371,44.393 209.692,44.586 208.677 C 44.682 208.168,45.062 207.450,45.430 207.082 C 45.798 206.715,46.098 205.997,46.098 205.488 C 46.098 204.979,46.315 204.562,46.579 204.562 C 46.843 204.562,47.059 204.171,47.059 203.693 C 47.059 203.215,47.376 202.405,47.764 201.892 C 48.152 201.380,48.476 200.258,48.484 199.400 C 48.495 198.339,48.730 197.839,49.220 197.839 C 49.693 197.839,49.940 197.365,49.940 196.457 C 49.940 195.697,50.264 194.807,50.660 194.478 C 51.056 194.149,51.381 193.258,51.381 192.498 C 51.381 191.738,51.594 191.116,51.855 191.116 C 52.116 191.116,52.468 190.252,52.637 189.196 C 52.806 188.139,53.132 187.275,53.363 187.275 C 53.593 187.275,53.782 186.411,53.782 185.354 C 53.782 183.967,53.982 183.433,54.502 183.433 C 54.955 183.433,55.222 182.976,55.222 182.199 C 55.222 181.519,55.546 180.640,55.942 180.244 C 56.339 179.847,56.663 178.932,56.663 178.209 C 56.663 177.486,56.980 176.475,57.368 175.962 C 57.755 175.449,58.080 174.479,58.088 173.806 C 58.096 173.132,58.312 172.372,58.567 172.117 C 58.822 171.862,59.084 170.960,59.149 170.113 C 59.213 169.266,59.545 168.466,59.885 168.335 C 60.232 168.202,60.504 167.337,60.504 166.367 C 60.504 165.416,60.828 164.313,61.224 163.917 C 61.621 163.521,61.945 162.440,61.945 161.516 C 61.945 160.592,62.269 159.511,62.665 159.115 C 63.061 158.719,63.385 157.672,63.385 156.788 C 63.385 155.905,63.615 155.105,63.897 155.012 C 64.178 154.918,64.530 153.928,64.680 152.811 C 64.830 151.694,65.140 150.780,65.369 150.780 C 65.599 150.780,65.786 149.942,65.786 148.918 C 65.786 147.849,66.093 146.802,66.507 146.459 C 66.903 146.130,67.227 145.157,67.227 144.298 C 67.227 143.438,67.551 142.466,67.947 142.137 C 68.354 141.799,68.667 140.752,68.667 139.728 C 68.667 138.562,68.924 137.820,69.388 137.641 C 69.840 137.468,70.108 136.734,70.108 135.669 C 70.108 134.737,70.324 133.974,70.588 133.974 C 70.852 133.974,71.075 133.379,71.084 132.653 C 71.092 131.927,71.416 130.913,71.804 130.400 C 72.192 129.888,72.509 128.645,72.509 127.639 C 72.509 126.334,72.715 125.810,73.229 125.810 C 73.746 125.810,73.950 125.282,73.950 123.941 C 73.950 122.722,74.200 121.975,74.670 121.795 C 75.115 121.624,75.390 120.894,75.390 119.882 C 75.390 118.981,75.714 117.976,76.110 117.647 C 76.507 117.318,76.831 116.656,76.831 116.176 C 76.831 115.696,77.047 115.169,77.311 115.006 C 77.575 114.843,77.791 113.989,77.791 113.108 C 77.791 112.128,78.070 111.400,78.511 111.231 C 78.908 111.079,79.239 110.462,79.247 109.859 C 79.255 109.256,79.579 108.344,79.967 107.831 C 80.355 107.319,80.672 106.493,80.672 105.996 C 80.672 105.500,80.996 104.769,81.393 104.373 C 81.789 103.977,82.113 103.141,82.113 102.515 C 82.113 101.889,82.301 101.261,82.531 101.119 C 82.761 100.977,83.080 100.208,83.239 99.410 C 83.549 97.859,84.512 97.399,84.517 98.800 C 84.518 99.262,84.843 100.259,85.237 101.015 C 85.632 101.772,85.954 102.805,85.954 103.311 C 85.954 103.818,86.279 104.356,86.675 104.508 C 87.121 104.679,87.395 105.410,87.395 106.429 C 87.395 107.448,87.669 108.179,88.115 108.350 C 88.585 108.530,88.836 109.277,88.836 110.496 C 88.836 111.524,89.038 112.365,89.286 112.365 C 89.534 112.365,89.883 113.337,90.061 114.526 C 90.239 115.714,90.577 116.687,90.811 116.687 C 91.045 116.687,91.239 117.389,91.243 118.247 C 91.252 120.366,91.734 122.015,92.251 121.695 C 92.486 121.550,92.677 122.510,92.677 123.827 C 92.677 125.316,92.950 126.495,93.397 126.942 C 93.880 127.425,94.118 128.628,94.118 130.593 C 94.118 132.755,94.307 133.596,94.838 133.800 C 95.394 134.013,95.558 134.940,95.558 137.867 C 95.558 139.951,95.751 141.657,95.988 141.657 C 96.224 141.657,96.497 143.422,96.595 145.581 C 96.711 148.130,96.981 149.574,97.366 149.702 C 97.777 149.839,97.959 151.203,97.959 154.142 C 97.959 158.427,98.241 160.083,98.900 159.676 C 99.098 159.553,99.303 161.121,99.356 163.160 C 99.408 165.199,99.657 166.939,99.909 167.028 C 100.160 167.116,100.244 167.386,100.095 167.628 C 99.945 167.870,100.052 168.067,100.332 168.067 C 100.614 168.067,100.840 169.027,100.840 170.228 C 100.840 171.417,101.037 172.389,101.278 172.389 C 101.519 172.389,101.862 173.253,102.041 174.310 C 102.219 175.366,102.562 176.230,102.803 176.230 C 103.044 176.230,103.241 176.753,103.241 177.392 C 103.241 178.964,103.728 180.125,104.252 179.801 C 104.488 179.655,104.682 180.065,104.682 180.713 C 104.682 181.360,105.006 182.014,105.402 182.166 C 105.798 182.318,106.122 182.889,106.122 183.433 C 106.122 183.978,106.447 184.548,106.843 184.700 C 107.239 184.852,107.563 185.226,107.563 185.530 C 107.563 186.325,109.882 188.715,110.652 188.715 C 111.010 188.715,111.426 189.040,111.578 189.436 C 111.730 189.832,112.358 190.156,112.974 190.156 C 113.590 190.156,114.341 190.403,114.643 190.706 C 115.348 191.410,118.127 190.351,118.127 189.378 C 118.127 189.013,118.343 188.715,118.607 188.715 C 118.872 188.715,119.088 188.391,119.088 187.995 C 119.088 187.599,119.412 187.275,119.808 187.275 C 120.204 187.275,120.528 186.974,120.528 186.606 C 120.528 186.238,120.852 185.813,121.248 185.661 C 121.645 185.509,121.969 185.043,121.969 184.626 C 121.969 184.209,122.494 183.381,123.136 182.786 C 123.778 182.191,124.450 181.121,124.629 180.408 C 124.808 179.695,125.147 179.112,125.382 179.112 C 125.618 179.112,125.810 178.811,125.810 178.443 C 125.810 178.075,126.134 177.649,126.531 177.497 C 126.927 177.345,127.251 176.805,127.251 176.297 C 127.251 175.789,127.575 175.248,127.971 175.096 C 128.367 174.944,128.691 174.374,128.691 173.830 C 128.691 173.285,129.016 172.715,129.412 172.563 C 129.808 172.411,130.132 171.985,130.132 171.617 C 130.132 171.249,130.348 170.948,130.612 170.948 C 130.876 170.948,131.067 170.786,131.036 170.588 C 130.852 169.425,131.186 168.547,131.813 168.547 C 132.263 168.547,132.533 168.092,132.533 167.332 C 132.533 166.663,132.857 165.992,133.253 165.840 C 133.649 165.688,133.974 165.070,133.974 164.466 C 133.974 163.862,134.298 163.244,134.694 163.092 C 135.090 162.940,135.414 162.376,135.414 161.840 C 135.414 161.303,135.576 160.863,135.774 160.861 C 136.315 160.857,137.815 158.033,137.815 157.018 C 137.815 156.530,138.153 155.794,138.565 155.381 C 138.977 154.969,139.346 154.212,139.385 153.700 C 139.423 153.187,139.680 152.807,139.956 152.854 C 140.231 152.902,140.525 152.343,140.609 151.613 C 140.693 150.882,140.963 150.408,141.209 150.560 C 141.455 150.713,141.673 150.662,141.692 150.449 C 141.835 148.898,142.237 147.634,142.631 147.499 C 142.887 147.411,143.097 146.709,143.097 145.938 C 143.097 145.014,143.342 144.538,143.818 144.538 C 144.257 144.538,144.538 144.090,144.538 143.389 C 144.538 142.757,144.862 142.115,145.258 141.963 C 145.654 141.811,145.978 141.163,145.978 140.523 C 145.978 139.882,146.303 139.234,146.699 139.082 C 147.095 138.930,147.419 138.492,147.419 138.109 C 147.419 137.296,148.933 134.288,149.460 134.054 C 149.658 133.966,149.820 133.263,149.820 132.493 C 149.820 131.568,150.065 131.092,150.540 131.092 C 150.980 131.092,151.261 130.645,151.261 129.943 C 151.261 129.311,151.585 128.670,151.981 128.518 C 152.377 128.366,152.701 127.694,152.701 127.026 C 152.701 126.357,152.876 125.810,153.089 125.810 C 153.561 125.810,155.102 122.418,155.102 121.379 C 155.102 120.967,155.426 120.507,155.822 120.355 C 156.218 120.203,156.543 119.554,156.543 118.914 C 156.543 118.274,156.867 117.625,157.263 117.473 C 157.659 117.321,157.983 116.845,157.983 116.416 C 157.983 115.556,159.452 112.699,160.024 112.445 C 160.222 112.357,160.384 111.786,160.384 111.176 C 160.384 110.566,160.708 109.942,161.104 109.790 C 161.501 109.638,161.825 108.967,161.825 108.298 C 161.825 107.538,162.094 107.083,162.545 107.083 C 162.993 107.083,163.265 106.629,163.265 105.882 C 163.265 105.222,163.542 104.682,163.880 104.682 C 164.219 104.682,164.748 104.088,165.057 103.361 C 165.365 102.635,166.172 101.176,166.850 100.120 C 167.528 99.064,168.212 97.821,168.371 97.359 C 168.530 96.897,168.958 96.519,169.324 96.519 C 169.689 96.519,169.988 96.076,169.988 95.535 C 169.988 94.994,170.528 94.051,171.188 93.439 C 171.849 92.828,172.389 92.082,172.389 91.782 C 172.389 91.482,172.618 91.236,172.897 91.236 C 173.177 91.236,173.272 91.020,173.109 90.756 C 172.946 90.492,173.041 90.276,173.321 90.276 C 173.601 90.276,173.830 89.975,173.830 89.607 C 173.830 89.239,174.154 88.814,174.550 88.662 C 175.133 88.438,175.271 88.862,175.273 90.891 C 175.275 92.270,175.599 94.016,175.993 94.773 C 176.428 95.606,176.711 97.457,176.711 99.470 C 176.711 101.979,176.887 102.859,177.431 103.068 C 178.035 103.299,178.151 104.768,178.151 112.176 C 178.151 117.173,178.341 121.008,178.589 121.008 C 178.830 121.008,178.966 121.387,178.891 121.849 C 178.817 122.311,178.850 122.854,178.966 123.056 C 179.327 123.685,179.249 165.536,178.885 166.124 C 178.696 166.430,178.674 167.209,178.835 167.854 C 178.997 168.500,178.925 169.028,178.674 169.028 C 178.423 169.028,178.230 169.622,178.245 170.348 C 178.482 181.851,178.081 193.037,177.431 193.037 C 177.015 193.037,176.711 193.472,176.711 194.065 C 176.711 194.630,176.337 195.365,175.881 195.699 C 175.208 196.191,175.142 196.562,175.533 197.672 L 176.014 199.040 191.128 199.040 C 202.963 199.040,206.216 198.909,206.122 198.439 C 206.056 198.109,206.273 197.839,206.603 197.839 C 207.455 197.839,207.185 28.467,206.331 27.410 C 205.869 26.839,205.898 26.782,206.483 27.109 C 207.080 27.443,207.097 27.398,206.580 26.841 C 206.120 26.345,204.223 26.130,199.309 26.015 L 192.662 25.860 191.409 27.211 M290.565 43.776 C 290.740 44.059,291.813 44.398,292.950 44.529 C 294.087 44.661,295.316 45.067,295.682 45.433 C 296.048 45.799,296.764 46.098,297.273 46.098 C 297.783 46.098,298.199 46.291,298.199 46.527 C 298.199 46.762,298.739 47.090,299.400 47.256 C 300.060 47.422,300.600 47.769,300.600 48.028 C 300.600 48.287,300.924 48.499,301.321 48.499 C 301.717 48.499,302.041 48.824,302.041 49.220 C 302.041 49.616,302.342 49.940,302.710 49.940 C 303.078 49.940,303.503 50.264,303.655 50.660 C 303.807 51.056,304.163 51.381,304.447 51.381 C 304.932 51.381,305.470 51.750,307.065 53.181 C 307.433 53.511,307.966 53.782,308.249 53.782 C 308.532 53.782,308.764 54.106,308.764 54.502 C 308.764 54.898,309.088 55.222,309.484 55.222 C 309.880 55.222,310.204 55.431,310.204 55.686 C 310.204 56.313,312.928 59.064,313.549 59.064 C 313.822 59.064,314.046 59.388,314.046 59.784 C 314.046 60.180,314.370 60.504,314.766 60.504 C 315.162 60.504,315.486 60.828,315.486 61.224 C 315.486 61.621,315.810 61.945,316.206 61.945 C 316.830 61.945,316.927 63.839,316.927 76.110 C 316.927 88.382,316.830 90.276,316.206 90.276 C 315.810 90.276,315.486 90.600,315.486 90.996 C 315.486 91.393,315.296 91.663,315.064 91.597 C 314.832 91.531,314.086 92.071,313.406 92.797 C 312.727 93.523,311.728 94.118,311.187 94.118 C 310.633 94.118,310.204 94.432,310.204 94.838 C 310.204 95.234,309.880 95.558,309.484 95.558 C 309.088 95.558,308.764 95.770,308.764 96.029 C 308.764 96.288,308.223 96.636,307.563 96.802 C 306.903 96.967,306.360 97.242,306.358 97.411 C 306.355 97.580,305.383 98.146,304.197 98.667 C 303.011 99.188,302.041 99.891,302.041 100.228 C 302.041 100.565,301.524 100.840,300.892 100.840 C 300.260 100.840,299.618 101.164,299.466 101.561 C 299.314 101.957,298.643 102.281,297.974 102.281 C 297.306 102.281,296.759 102.497,296.759 102.761 C 296.759 103.025,296.245 103.241,295.617 103.241 C 294.989 103.241,294.206 103.565,293.878 103.962 C 293.388 104.551,291.767 104.682,284.935 104.682 L 276.591 104.682 276.591 102.100 C 276.591 100.362,276.349 99.317,275.852 98.904 C 275.063 98.250,274.848 88.112,275.634 88.597 C 276.375 89.056,276.557 86.462,276.553 75.509 C 276.550 67.867,276.382 64.273,276.015 64.047 C 275.670 63.833,275.619 63.939,275.870 64.346 C 276.127 64.762,276.071 64.858,275.704 64.632 C 275.387 64.436,275.150 63.082,275.150 61.465 C 275.150 59.911,274.953 58.518,274.712 58.369 C 274.471 58.220,274.127 57.235,273.949 56.180 C 273.771 55.125,273.428 54.262,273.187 54.262 C 272.946 54.262,272.749 53.715,272.749 53.046 C 272.749 52.378,272.425 51.706,272.029 51.554 C 271.633 51.402,271.309 50.761,271.309 50.129 C 271.309 49.427,271.028 48.980,270.588 48.980 C 270.108 48.980,269.868 48.499,269.868 47.539 C 269.868 46.579,269.628 46.098,269.148 46.098 C 268.752 46.098,268.427 45.679,268.427 45.166 C 268.427 44.654,268.211 44.101,267.947 43.938 C 267.683 43.774,267.467 43.404,267.467 43.114 C 267.467 42.396,290.113 43.044,290.565 43.776 " stroke="none" fill="#00be00" fill-rule="evenodd"></path><path id="path4" d="M264.586 13.264 C 264.586 13.902,264.716 13.935,265.306 13.445 C 265.702 13.117,266.026 12.766,266.026 12.666 C 266.026 12.567,265.702 12.485,265.306 12.485 C 264.910 12.485,264.586 12.836,264.586 13.264 M269.271 12.844 C 269.602 12.956,269.723 13.299,269.539 13.606 C 269.288 14.024,269.379 14.030,269.896 13.630 C 270.277 13.335,270.912 12.981,271.309 12.843 C 271.705 12.704,271.273 12.602,270.348 12.616 C 269.424 12.630,268.939 12.733,269.271 12.844 M207.197 106.843 C 207.197 150.156,207.254 167.804,207.323 146.061 C 207.392 124.317,207.392 88.879,207.323 67.309 C 207.254 45.739,207.197 63.529,207.197 106.843 M316.659 76.110 C 316.659 84.034,316.725 87.342,316.806 83.463 C 316.886 79.584,316.886 73.101,316.806 69.057 C 316.726 65.013,316.660 68.187,316.659 76.110 M22.409 185.674 C 21.681 186.402,22.055 192.540,22.809 192.250 C 23.353 192.042,23.529 191.163,23.529 188.664 C 23.529 185.615,23.240 184.843,22.409 185.674 M360.820 214.754 C 360.888 215.091,361.330 215.441,361.801 215.532 C 362.335 215.636,362.534 215.497,362.329 215.164 C 362.147 214.871,361.816 214.743,361.592 214.881 C 361.369 215.019,361.076 214.909,360.941 214.637 C 360.807 214.364,360.752 214.417,360.820 214.754 " stroke="none" fill="#00ff00" fill-rule="evenodd"></path></g></svg>